<svg xmlns="http://www.w3.org/2000/svg" viewBox="0 0 64 64" width="64" height="64" role="img" aria-label="NF Décor Façade icône">
  <polygon points="32,4 58,24 6,24" fill="#C0392B"/>
  <rect x="46" y="9" width="6" height="10" rx="1" fill="#C0392B"/>
  <rect x="10" y="23" width="44" height="28" rx="2" fill="#C0392B"/>
  <rect x="26" y="34" width="12" height="17" rx="1.5" fill="#A02318"/>
  <rect x="13" y="28" width="10" height="8" rx="1" fill="#A02318"/>
  <line x1="18" y1="28" x2="18" y2="36" stroke="#C0392B" stroke-width="1"/>
  <line x1="13" y1="32" x2="23" y2="32" stroke="#C0392B" stroke-width="1"/>
  <rect x="41" y="28" width="10" height="8" rx="1" fill="#A02318"/>
  <line x1="46" y1="28" x2="46" y2="36" stroke="#C0392B" stroke-width="1"/>
  <line x1="41" y1="32" x2="51" y2="32" stroke="#C0392B" stroke-width="1"/>
  <path d="M 3,54 C 6,46 14,42 24,45 C 34,48 42,43 54,38"
    fill="none" stroke="#C0392B" stroke-width="4.5" stroke-linecap="round"/>
  <path d="M 4,58 L 1,52" fill="none" stroke="#C0392B" stroke-width="4" stroke-linecap="round"/>
</svg>
